<svg width="525" height="143" viewBox="0 0 525 143" fill="none" xmlns="http://www.w3.org/2000/svg">
<path fill-rule="evenodd" clip-rule="evenodd" d="M29.169 142.531C7.80559 142.531 0 131.168 0 110.325V90.9533C0 70.1615 7.80559 58.7474 29.169 58.7474H135.79V49.6264C135.79 36.5695 130.762 30.255 120.179 30.255H3.15545V0H126.505C152.685 0 164.763 15.4013 164.763 46.3237V142.531H29.169ZM135.79 82.5339H39.7526C31.947 82.5339 28.9728 86.9489 28.9728 94.9576V102.111C28.9728 110.53 31.9923 114.945 39.7526 114.945H135.79V82.5339ZM221.032 142.531C194.656 142.531 182.397 127.129 182.397 96.2239V46.3237C182.397 15.4013 194.656 0 221.032 0H308.886C335.262 0 347.341 15.4013 347.341 46.3237V96.2239C347.341 127.163 335.262 142.531 308.886 142.531H221.032ZM318.187 49.6264C318.187 36.5695 313.355 30.255 302.575 30.255H227.343C216.578 30.255 211.747 36.5695 211.747 49.6264V92.8528C211.747 105.482 216.578 112.002 227.343 112.002H302.575C313.355 112.002 318.187 105.482 318.187 92.8528V49.6264ZM364.976 114.945V142.531H495.21C516.754 142.531 524.56 131.168 524.56 110.325V90.8335C524.56 69.9048 516.754 58.3196 495.21 58.3196H404.728C396.968 58.3196 393.949 53.6821 393.949 45.6905V40.0092C393.949 31.7951 396.923 27.5855 404.728 27.5855H521.374V0H394.145C372.781 0 364.976 11.3627 365.097 32.2058V50.2254C365.097 71.154 372.902 82.7392 394.266 82.7392H484.853C492.402 82.7392 495.421 87.5821 495.421 95.3683V102.111C495.421 110.53 492.19 114.945 484.641 114.945H364.976Z" fill="white"/>
</svg>
